<?xml version="1.0" standalone="no"?>
<!DOCTYPE svg PUBLIC "-//W3C//DTD SVG 20010904//EN"
 "http://www.w3.org/TR/2001/REC-SVG-20010904/DTD/svg10.dtd">
<svg version="1.0" xmlns="http://www.w3.org/2000/svg"
 width="800.000000pt" height="600.000000pt" viewBox="0 0 800.000000 600.000000"
 preserveAspectRatio="xMidYMid meet">

<g transform="translate(0.000000,600.000000) scale(0.100000,-0.100000)"
fill="#000000" stroke="none">
<path d="M4765 3501 c-3 -2 -5 -12 -5 -21 0 -13 11 -19 40 -23 74 -10 70 18
70 -458 0 -413 -1 -429 -19 -439 -11 -5 -36 -10 -55 -10 -32 0 -36 -3 -36 -25
l0 -26 353 3 352 3 88 42 c119 57 205 139 255 243 35 72 37 80 40 197 3 104 1
132 -17 184 -52 156 -171 268 -331 312 -43 12 -131 16 -393 19 -185 3 -340 2
-342 -1z m594 -101 c51 -14 107 -57 125 -95 13 -27 16 -78 16 -299 0 -313 -2
-321 -95 -382 -50 -34 -62 -37 -145 -42 l-90 -5 0 417 0 416 78 0 c42 0 92 -4
111 -10z"/>
<path d="M810 3483 c0 -5 23 -31 50 -58 l50 -49 0 -386 0 -385 -36 -50 -35
-50 231 -8 c128 -5 235 -6 237 -3 3 3 -15 30 -41 60 l-46 54 0 126 0 126 208
0 207 0 61 29 c79 37 138 91 172 155 37 70 38 196 4 271 -27 59 -82 118 -137
148 -39 21 -51 22 -482 25 -244 1 -443 -1 -443 -5z m750 -111 c45 -45 62 -98
64 -197 1 -89 -15 -134 -66 -184 l-40 -41 -159 0 -159 0 0 230 0 230 161 0
161 0 38 -38z"/>
<path d="M2124 3428 l56 -63 0 -371 0 -371 -40 -56 c-22 -30 -40 -58 -40 -61
0 -3 106 -6 235 -6 129 0 235 3 235 6 0 3 -18 26 -40 51 -46 53 -52 77 -48
200 l3 92 213 -175 213 -174 191 2 c117 2 192 7 194 13 2 6 -75 74 -169 152
l-172 143 -145 0 c-139 1 -146 2 -172 25 -16 13 -28 27 -28 30 0 3 67 5 149 4
142 -1 150 0 202 26 131 66 190 148 197 275 3 59 0 87 -17 131 -28 73 -83 136
-145 165 l-51 24 -438 0 -439 0 56 -62z m672 -27 c47 -28 75 -83 87 -166 16
-109 -1 -173 -62 -236 l-47 -49 -157 0 -157 0 0 235 0 235 153 0 c131 0 156
-3 183 -19z"/>
<path d="M3650 3479 c0 -5 13 -14 28 -20 37 -13 162 -176 162 -211 0 -15 -75
-176 -167 -359 -160 -319 -170 -334 -202 -344 -66 -21 -47 -33 56 -37 54 -2
102 0 107 4 6 4 2 15 -7 26 -9 10 -17 23 -17 28 0 5 21 55 47 112 l47 102 203
0 204 0 59 -92 c66 -102 73 -138 31 -148 -14 -3 -26 -11 -29 -18 -3 -9 52 -12
237 -12 162 0 241 3 241 11 0 5 -22 19 -49 31 l-49 20 -258 459 -257 459 -193
0 c-129 0 -194 -4 -194 -11z m328 -471 c40 -71 71 -132 69 -134 -2 -3 -70 -3
-150 -2 l-146 3 72 132 c40 73 74 133 77 133 3 -1 38 -60 78 -132z"/>
<path d="M6190 3480 c0 -5 13 -16 30 -22 31 -14 170 -182 170 -207 0 -8 -76
-168 -169 -356 l-168 -342 -38 -9 c-72 -17 -52 -31 55 -39 56 -4 104 -4 108
-1 3 4 1 15 -6 24 -7 9 -15 22 -18 28 -3 6 17 59 45 118 l50 106 203 -1 203 0
58 -90 c67 -106 74 -143 26 -153 -18 -3 -29 -11 -27 -18 7 -19 469 -19 476 0
2 7 -16 21 -45 33 -49 20 -50 21 -156 212 -59 106 -174 311 -256 457 l-149
265 -196 3 c-128 1 -196 -1 -196 -8z m351 -611 c-64 -8 -251 -11 -251 -5 0 2
17 35 38 73 21 37 55 99 76 136 l38 69 77 -134 77 -133 -55 -6z"/>
</g>
</svg>
