<?xml version="1.0" standalone="no"?>
<!DOCTYPE svg PUBLIC "-//W3C//DTD SVG 20010904//EN"
 "http://www.w3.org/TR/2001/REC-SVG-20010904/DTD/svg10.dtd">
<svg version="1.0" xmlns="http://www.w3.org/2000/svg"
 width="1600.000000pt" height="500.000000pt" viewBox="0 0 1600.000000 500.000000"
 preserveAspectRatio="xMidYMid meet">

<g transform="translate(0.000000,500.000000) scale(0.100000,-0.100000)"
fill="#000000" stroke="none">
<path d="M9786 3666 c-3 -12 -6 -35 -6 -52 l0 -31 73 -6 c79 -6 142 -27 163
-55 11 -14 13 -203 14 -1009 0 -545 -3 -999 -6 -1008 -10 -26 -56 -43 -145
-55 -46 -5 -87 -10 -91 -10 -5 0 -8 -22 -8 -50 l0 -50 799 0 799 0 88 31 c287
101 523 267 667 470 64 91 140 254 171 369 24 89 26 110 26 315 0 191 -3 230
-20 295 -117 426 -384 696 -817 826 -105 31 -135 32 -1070 37 l-631 4 -6 -21z
m1405 -225 c80 -25 170 -83 226 -143 83 -91 77 -42 86 -703 4 -324 5 -619 3
-653 -12 -149 -114 -275 -295 -365 l-84 -42 -199 -3 -198 -4 0 972 0 973 198
-5 c163 -5 208 -9 263 -27z"/>
<path d="M3480 3654 c0 -3 56 -66 125 -140 l125 -133 0 -889 0 -889 -90 -127
c-49 -70 -90 -130 -90 -134 0 -4 252 -9 560 -11 308 -2 560 -1 560 3 0 3 -47
61 -104 128 l-104 122 -6 111 c-3 60 -8 190 -11 288 l-6 179 28 -20 c15 -12
244 -199 508 -416 l480 -396 443 0 442 0 12 25 c9 21 9 28 -3 39 -8 7 -191
160 -407 340 l-392 326 -333 0 -332 0 -78 63 -77 62 353 5 352 5 90 40 c330
145 514 397 515 703 1 322 -188 602 -470 698 l-72 24 -1009 0 c-555 0 -1009
-3 -1009 -6z m1668 -186 c62 -31 144 -113 176 -177 50 -98 68 -191 70 -356 2
-252 -37 -345 -207 -490 l-64 -55 -300 0 c-165 0 -328 3 -362 6 l-61 7 0 543
0 544 351 0 c345 0 353 0 397 -22z"/>
<path d="M7180 3632 c0 -24 7 -30 65 -52 l66 -26 159 -204 c158 -203 160 -205
160 -256 0 -48 -29 -110 -387 -839 -214 -433 -392 -789 -398 -791 -5 -2 -49
-15 -97 -29 -79 -23 -88 -29 -88 -50 0 -13 3 -26 8 -28 4 -3 112 -6 241 -8
l234 -4 10 23 c9 20 5 28 -31 65 -23 24 -42 48 -42 54 0 15 46 116 147 326
l86 177 472 0 471 0 136 -209 c133 -206 136 -211 140 -272 l3 -63 -70 -21
c-39 -11 -70 -26 -69 -33 4 -45 -30 -42 558 -42 496 0 554 2 560 16 15 39 6
46 -127 95 -68 25 -124 70 -144 117 -7 18 -77 146 -155 285 -196 350 -460 822
-753 1349 l-250 448 -452 0 -453 0 0 -28z m769 -1113 c99 -174 181 -320 181
-323 0 -3 -162 -6 -360 -6 -198 0 -360 2 -360 5 0 3 66 126 146 273 184 336
206 374 209 370 1 -2 84 -145 184 -319z"/>
<path d="M13137 3653 c-4 -3 -7 -16 -7 -29 0 -18 12 -27 63 -46 62 -25 63 -26
225 -232 159 -204 162 -209 162 -257 0 -44 -38 -125 -385 -831 -212 -431 -391
-787 -399 -793 -7 -5 -52 -21 -100 -34 -81 -23 -86 -26 -86 -51 l0 -27 152 -6
c83 -4 191 -7 239 -7 80 0 89 2 100 21 9 19 6 27 -30 63 -23 23 -41 51 -41 61
0 11 51 126 113 255 l113 235 130 6 c71 4 282 7 470 8 313 1 342 0 356 -16 8
-10 71 -106 140 -213 122 -189 126 -198 129 -255 l3 -60 -68 -22 c-38 -13 -71
-25 -73 -27 -2 -2 -1 -15 3 -30 l6 -26 552 0 553 0 12 27 c15 32 16 31 -106
79 -113 44 -136 61 -170 127 -14 29 -165 302 -336 607 -170 305 -395 708 -500
895 -104 187 -221 395 -259 463 l-69 122 -443 0 c-243 0 -446 -3 -449 -7z
m759 -1135 c98 -172 181 -316 182 -320 2 -4 -159 -8 -358 -8 -199 0 -360 4
-358 8 12 30 344 632 349 632 3 0 86 -140 185 -312z"/>
<path d="M530 3643 c1 -5 57 -69 125 -143 l125 -135 0 -887 0 -888 -95 -132
-95 -133 279 -3 c154 -1 408 -1 566 0 l286 3 -104 122 -105 122 -6 83 c-3 46
-8 183 -11 305 l-7 222 504 3 503 3 109 52 c205 100 332 216 411 377 59 120
79 218 72 351 -7 126 -26 197 -81 310 -71 143 -171 246 -301 311 -135 67 -78
64 -1177 64 -549 0 -998 -3 -998 -7z m1658 -183 c65 -30 155 -121 191 -195 46
-93 63 -187 65 -350 2 -241 -44 -349 -205 -481 l-66 -54 -362 0 -361 0 0 543
c0 299 3 547 7 550 3 4 160 7 347 7 316 0 344 -2 384 -20z"/>
</g>
</svg>
